<svg xmlns="http://www.w3.org/2000/svg" width="61" height="50" fill="none" viewBox="0 0 61 50">
  <path fill="#41D399" d="M18.931 41.667c0-1.15-.41-2.133-1.233-2.946-.821-.814-1.813-1.221-2.974-1.221-1.161 0-2.153.407-2.974 1.22-.822.815-1.233 1.797-1.233 2.947 0 1.15.411 2.132 1.233 2.946.821.813 1.813 1.22 2.974 1.22 1.161 0 2.153-.407 2.974-1.22.822-.814 1.233-1.796 1.233-2.946ZM6.311 25h12.62v-8.333h-5.193c-.307.043-.548.14-.723.293l-6.409 6.347c-.153.26-.252.5-.296.716V25Zm42.068 16.667c0-1.15-.41-2.133-1.232-2.946-.822-.814-1.813-1.221-2.975-1.221-1.16 0-2.152.407-2.974 1.22-.822.815-1.233 1.797-1.233 2.947 0 1.15.411 2.132 1.233 2.946.822.813 1.813 1.22 2.974 1.22 1.162 0 2.153-.407 2.975-1.22.822-.814 1.232-1.796 1.232-2.946Zm4.207-21.875v-6.25c0-.304-.098-.554-.296-.749a1.03 1.03 0 0 0-.755-.293h-7.363V5.208c0-.303-.098-.553-.295-.748a1.029 1.029 0 0 0-.756-.293h-6.31c-.307 0-.56.097-.757.293a1.009 1.009 0 0 0-.295.748V12.5h-7.362a1.03 1.03 0 0 0-.756.293 1.009 1.009 0 0 0-.296.749v6.25a1.005 1.005 0 0 0 1.052 1.041h7.362v7.292c0 .304.098.553.295.749.198.195.45.293.756.293h6.31c.307 0 .56-.098.757-.293a1.01 1.01 0 0 0 .295-.749v-7.292h7.363c.306 0 .558-.097.755-.293.198-.195.296-.444.296-.748ZM61 2.083v37.5c0 .565-.208 1.053-.624 1.465-.417.413-.91.619-1.48.619h-6.31c0 2.3-.822 4.264-2.465 5.892C48.478 49.186 46.495 50 44.172 50c-2.322 0-4.305-.814-5.948-2.441-1.644-1.628-2.465-3.592-2.465-5.892H23.138c0 2.3-.822 4.264-2.465 5.892C19.03 49.186 17.047 50 14.724 50c-2.322 0-4.305-.814-5.949-2.441-1.643-1.628-2.465-3.592-2.465-5.892H2.103a2.03 2.03 0 0 1-1.479-.619c-.416-.412-.624-.9-.624-1.465 0-.564.208-1.052.624-1.465.417-.412.91-.618 1.48-.618V23.958c0-.564.142-1.193.427-1.888.285-.694.635-1.247 1.051-1.66l6.508-6.445c.416-.412.975-.76 1.676-1.042.701-.282 1.337-.423 1.906-.423h5.259V2.083c0-.564.208-1.052.624-1.465.417-.412.91-.618 1.48-.618h37.862c.57 0 1.062.206 1.479.618.416.413.624.901.624 1.465Z"/>
</svg>
