<svg xmlns="http://www.w3.org/2000/svg" width="45" height="72" fill="none" viewBox="0 0 45 72">
  <g clip-path="url(#a)">
    <path fill="#41D399" d="M43.941 37.989a5.781 5.781 0 0 0-.312-.717l.015.033c-.438-1.023-3.96-7.827-4.548-8.754L22.743-3.003 5.973 29.325c-.57.93-3.696 6.96-4.128 7.98l-.171.378A22.368 22.368 0 0 0 0 46.25a22.746 22.746 0 1 0 45.492 0v-.018l.003-.303c0-2.865-.57-5.598-1.605-8.088l.051.14v.007ZM22.755 63.054A16.754 16.754 0 0 1 8.058 38.247l-.045.087a19.144 19.144 0 0 0-.33 3.543v.003a20.1 20.1 0 0 0 20.088 20.088c.339 0 .702 0 1.038-.018a16.588 16.588 0 0 1-6.009 1.104h-.069.024Z"/>
  </g>
  <defs>
    <clipPath id="a">
      <path fill="#fff" d="M0 0h45v72H0z"/>
    </clipPath>
  </defs>
</svg>
