<svg xmlns="http://www.w3.org/2000/svg" width="72" height="72" fill="none" viewBox="0 0 72 72">
  <path fill="#41D399" fill-rule="evenodd" d="M44.376 34.305a9.314 9.314 0 0 0 4.875-1.358 9.36 9.36 0 0 0 4.935 1.328l5.58-1.831c1.57-1.17 2.65-2.794 3.056-4.595a7.338 7.338 0 0 0-.829-5.307c-.94-1.63-2.474-2.92-4.342-3.652-.428-1.745-1.502-3.306-3.047-4.424l-5.444-1.719h-.615c-1.211-1.596-3.029-2.735-5.11-3.198l-11.674-.592c-1.941.145-3.771.876-5.194 2.074a10.154 10.154 0 0 0-2.055-.222 9.362 9.362 0 0 0-4.716 1.269c-1.403.825-2.513 2-3.192 3.381l-4.438 2.835a7.335 7.335 0 0 0-1.694 4.663 6.546 6.546 0 0 0 .306 2.076c-1.163 1.364-1.79 3.038-1.778 4.76-.003 1.995.841 3.916 2.361 5.368a7.393 7.393 0 0 0 1.599 3.966 8.6 8.6 0 0 0 3.642 2.648 12.717 12.717 0 0 1 4.165 3.744 11.254 11.254 0 0 1 1.966 5.001h4.08V38.904l-3.965-3.522-2.68 2.682a1.5 1.5 0 1 1-2.121-2.123l3.125-3.124-.952-5.24-4.239-2.119a1.5 1.5 0 1 1 1.342-2.683l4.151 2.076 5.192-3.305-1.6-4.266a1.5 1.5 0 0 1 2.809-1.055l1.706 4.551h2.099l.975-1.947-1.427-3.327a1.5 1.5 0 0 1 2.758-1.182l1.239 2.891 4.95.9c.027-.026.056-.051.085-.075l3.069-2.454a1.5 1.5 0 0 1 1.875 2.341l-2.208 1.768 2.593 3.334 1.017-2.034a1.5 1.5 0 0 1 1.341-.83h3.683a1.5 1.5 0 0 1 0 3h-2.756l-.628 1.259 3.096.687c.12.027.236.069.345.123l2.454 1.227a1.502 1.502 0 0 1-1.341 2.685l-2.289-1.146-5.343-1.186a1.5 1.5 0 0 1-.858-.545l-3.945-5.07-4.895-.89a1.486 1.486 0 0 1-.312.224l-1.051 2.102v1.213h2.181a1.5 1.5 0 0 1 .672.157l4.91 2.456a1.502 1.502 0 0 1-1.343 2.683l-4.593-2.296h-1.827v2.796a1.5 1.5 0 1 1-3 0v-5.864h-2.358l-5.532 3.52.956 5.25 5.136 4.564a1.5 1.5 0 0 1 .502 1.12v12.29h4.377v-8.303a7.328 7.328 0 0 1 1.314-4.17 8.486 8.486 0 0 1 3.56-2.914c.825-.285 1.026-.668 1.275-1.137.164-.312.35-.663.754-1.05.35.218.621.408.856.575.731.514 1.115.785 2.43.785l-.001-.001ZM34.5 57h-12v-3h12v3Zm0 6h-12v-3h12v3Z" clip-rule="evenodd"/>
</svg>
