<svg xmlns="http://www.w3.org/2000/svg" width="332" height="211" fill="none" viewBox="0 0 332 211">
  <rect width="331" height="41" x=".5" y="169.5" fill="#EBF0FF" stroke="#AECBFA" rx="7.5"/>
  <path fill="#25282B" d="M55.98 190.42c.507 0 .947-.063 1.32-.19.38-.127.69-.3.93-.52.247-.227.43-.493.55-.8.12-.307.18-.643.18-1.01 0-.733-.243-1.297-.73-1.69-.48-.393-1.217-.59-2.21-.59H54.3v4.8h1.68ZM62.9 198h-2.43c-.46 0-.793-.18-1-.54l-3.04-4.63a1.05 1.05 0 0 0-.38-.37c-.133-.073-.333-.11-.6-.11H54.3V198h-2.69v-14.46h4.41c.98 0 1.82.103 2.52.31.707.2 1.283.483 1.73.85.453.367.787.807 1 1.32a4.29 4.29 0 0 1 .32 1.68c0 .487-.073.947-.22 1.38-.14.433-.347.827-.62 1.18a4.07 4.07 0 0 1-1 .93 4.916 4.916 0 0 1-1.35.63c.173.1.333.22.48.36.147.133.28.293.4.48L62.9 198Zm7.318-6.31c0-.32-.047-.62-.14-.9a2.077 2.077 0 0 0-.4-.75 1.83 1.83 0 0 0-.69-.5 2.258 2.258 0 0 0-.96-.19c-.714 0-1.277.203-1.69.61-.407.407-.667.983-.78 1.73h4.66Zm-4.71 1.49c.04.527.133.983.28 1.37.146.38.34.697.58.95.24.247.523.433.85.56.333.12.7.18 1.1.18.4 0 .743-.047 1.03-.14a4.6 4.6 0 0 0 .76-.31c.22-.113.41-.217.57-.31a.987.987 0 0 1 .48-.14c.206 0 .36.077.46.23l.71.9c-.274.32-.58.59-.92.81a5.47 5.47 0 0 1-1.07.52 5.886 5.886 0 0 1-1.13.27c-.38.053-.75.08-1.11.08a5.558 5.558 0 0 1-1.99-.35 4.544 4.544 0 0 1-1.6-1.05 4.992 4.992 0 0 1-1.07-1.72c-.26-.687-.39-1.48-.39-2.38 0-.7.113-1.357.34-1.97.226-.62.55-1.157.97-1.61.426-.46.943-.823 1.55-1.09.613-.267 1.303-.4 2.07-.4a5.02 5.02 0 0 1 1.79.31c.546.207 1.016.51 1.41.91.393.393.7.88.92 1.46.226.573.34 1.23.34 1.97 0 .373-.04.627-.12.76-.08.127-.234.19-.46.19h-6.35Zm12.733-.56c.307 0 .573-.04.8-.12.227-.087.413-.203.56-.35.153-.147.267-.323.34-.53.08-.207.12-.433.12-.68 0-.507-.153-.907-.46-1.2-.3-.3-.753-.45-1.36-.45-.607 0-1.063.15-1.37.45-.3.293-.45.693-.45 1.2a2 2 0 0 0 .11.67c.08.207.193.387.34.54.153.147.343.263.57.35.233.08.5.12.8.12Zm2.79 5.84c0-.2-.06-.363-.18-.49a1.142 1.142 0 0 0-.49-.29 3.396 3.396 0 0 0-.73-.16 11.233 11.233 0 0 0-.88-.07 36.77 36.77 0 0 0-.96-.05c-.327-.013-.647-.04-.96-.08a2.372 2.372 0 0 0-.67.54 1.113 1.113 0 0 0-.12 1.22c.093.16.237.297.43.41.2.113.457.2.77.26.313.067.697.1 1.15.1.46 0 .857-.037 1.19-.11.333-.067.607-.163.82-.29.22-.12.38-.267.48-.44.1-.167.15-.35.15-.55Zm2.46-10.37v.92c0 .293-.177.473-.53.54l-.92.17c.14.353.21.74.21 1.16a3.018 3.018 0 0 1-1.15 2.42 4.02 4.02 0 0 1-1.28.67 5.242 5.242 0 0 1-1.58.23c-.2 0-.393-.01-.58-.03a7.448 7.448 0 0 1-.55-.08c-.32.193-.48.41-.48.65 0 .207.093.36.28.46.193.093.447.16.76.2.313.04.67.067 1.07.08.4.007.81.027 1.23.06.42.033.83.093 1.23.18.4.08.757.21 1.07.39.313.18.563.427.75.74.193.307.29.703.29 1.19 0 .453-.113.893-.34 1.32-.22.427-.543.807-.97 1.14-.42.333-.94.6-1.56.8-.613.207-1.313.31-2.1.31-.773 0-1.447-.077-2.02-.23-.573-.147-1.05-.347-1.43-.6-.38-.247-.663-.533-.85-.86a2.03 2.03 0 0 1-.28-1.02c0-.48.143-.88.43-1.2.293-.327.693-.587 1.2-.78a1.725 1.725 0 0 1-.65-.56c-.16-.233-.24-.54-.24-.92 0-.153.027-.31.08-.47.06-.167.143-.33.25-.49.113-.16.253-.31.42-.45.167-.147.363-.277.59-.39-.52-.28-.93-.653-1.23-1.12-.293-.467-.44-1.013-.44-1.64 0-.507.1-.963.3-1.37.207-.413.49-.763.85-1.05a3.89 3.89 0 0 1 1.29-.67c.5-.153 1.043-.23 1.63-.23.44 0 .853.047 1.24.14.387.087.74.217 1.06.39h2.95Zm4.326-.35V198h-2.48v-10.26h2.48Zm.34-2.99c0 .213-.043.413-.13.6-.086.187-.203.35-.35.49-.14.14-.306.253-.5.34-.193.08-.4.12-.62.12a1.58 1.58 0 0 1-.61-.12 1.693 1.693 0 0 1-.83-.83 1.604 1.604 0 0 1 0-1.22c.087-.193.2-.36.34-.5s.304-.25.49-.33a1.47 1.47 0 0 1 .61-.13c.22 0 .427.043.62.13.194.08.36.19.5.33a1.56 1.56 0 0 1 .48 1.12Zm8.639 4.99a.713.713 0 0 1-.21.23.58.58 0 0 1-.28.06.909.909 0 0 1-.39-.1c-.134-.067-.29-.14-.47-.22a3.903 3.903 0 0 0-.62-.23 2.879 2.879 0 0 0-.81-.1c-.487 0-.87.103-1.15.31a.97.97 0 0 0-.41.81.8.8 0 0 0 .21.56c.146.147.336.277.57.39.24.113.51.217.81.31.3.087.603.183.91.29.313.107.62.23.92.37.3.133.566.307.8.52.24.207.43.457.57.75.146.293.22.647.22 1.06 0 .493-.09.95-.27 1.37a2.957 2.957 0 0 1-.78 1.08 3.8 3.8 0 0 1-1.29.71c-.507.167-1.094.25-1.76.25-.354 0-.7-.033-1.04-.1a5.656 5.656 0 0 1-1.83-.66c-.26-.153-.49-.32-.69-.5l.57-.94a.81.81 0 0 1 .26-.26c.1-.06.226-.09.38-.09.153 0 .296.043.43.13.14.087.3.18.48.28.18.1.39.193.63.28.246.087.556.13.93.13.293 0 .543-.033.75-.1.213-.073.386-.167.52-.28a.974.974 0 0 0 .3-.39c.066-.153.1-.31.1-.47a.818.818 0 0 0-.22-.59 1.802 1.802 0 0 0-.57-.4 4.982 4.982 0 0 0-.81-.3c-.3-.093-.61-.193-.93-.3a9.939 9.939 0 0 1-.93-.37c-.3-.147-.57-.33-.81-.55a2.57 2.57 0 0 1-.57-.81c-.14-.32-.21-.707-.21-1.16 0-.42.083-.82.25-1.2.166-.38.41-.71.73-.99.326-.287.73-.513 1.21-.68.486-.173 1.046-.26 1.68-.26.706 0 1.35.117 1.93.35.58.233 1.063.54 1.45.92l-.56.89Zm6.149 8.42c-.894 0-1.58-.25-2.06-.75-.474-.507-.71-1.203-.71-2.09v-5.73h-1.05a.48.48 0 0 1-.34-.13c-.094-.087-.14-.217-.14-.39v-.98l1.65-.27.52-2.8a.543.543 0 0 1 .19-.31.566.566 0 0 1 .36-.11h1.28v3.23h2.74v1.76h-2.74v5.56c0 .32.076.57.23.75.16.18.376.27.65.27.153 0 .28-.017.38-.05.106-.04.196-.08.27-.12.08-.04.15-.077.21-.11.06-.04.12-.06.18-.06.073 0 .133.02.18.06a.739.739 0 0 1 .15.16l.74 1.2c-.36.3-.774.527-1.24.68-.467.153-.95.23-1.45.23Zm6.551-8.64c.32-.613.7-1.093 1.14-1.44.44-.353.96-.53 1.56-.53.473 0 .853.103 1.14.31l-.16 1.85a.484.484 0 0 1-.15.26.395.395 0 0 1-.25.07c-.1 0-.25-.017-.45-.05a3.38 3.38 0 0 0-.57-.05c-.273 0-.517.04-.73.12-.213.08-.407.197-.58.35a2.42 2.42 0 0 0-.45.54 5.645 5.645 0 0 0-.36.73V198h-2.47v-10.26h1.45c.253 0 .43.047.53.14.1.087.167.247.2.48l.15 1.16Zm10.614 4.1c-.713.033-1.313.097-1.8.19-.486.087-.876.2-1.17.34-.293.14-.503.303-.63.49a1.07 1.07 0 0 0-.19.61c0 .433.127.743.38.93.26.187.597.28 1.01.28.507 0 .944-.09 1.31-.27.374-.187.737-.467 1.09-.84v-1.73Zm-5.66-4.45c1.18-1.08 2.6-1.62 4.26-1.62.6 0 1.137.1 1.61.3.474.193.874.467 1.2.82.327.347.574.763.74 1.25.174.487.26 1.02.26 1.6V198h-1.12c-.233 0-.413-.033-.54-.1-.126-.073-.226-.217-.3-.43l-.22-.74c-.26.233-.513.44-.76.62-.246.173-.503.32-.77.44-.266.12-.553.21-.86.27-.3.067-.633.1-1 .1a4.06 4.06 0 0 1-1.2-.17 2.711 2.711 0 0 1-.95-.53 2.363 2.363 0 0 1-.62-.87 3.1 3.1 0 0 1-.22-1.21c0-.26.044-.517.13-.77.087-.26.227-.507.42-.74.2-.233.457-.453.77-.66a4.986 4.986 0 0 1 1.15-.54c.46-.153.994-.277 1.6-.37.607-.1 1.3-.16 2.08-.18v-.6c0-.687-.146-1.193-.44-1.52-.293-.333-.716-.5-1.27-.5-.4 0-.733.047-1 .14-.26.093-.49.2-.69.32l-.55.31c-.16.093-.34.14-.54.14a.73.73 0 0 1-.44-.13 1.2 1.2 0 0 1-.29-.32l-.44-.79Zm13.88 8.99c-.893 0-1.58-.25-2.06-.75-.473-.507-.71-1.203-.71-2.09v-5.73h-1.05a.48.48 0 0 1-.34-.13c-.093-.087-.14-.217-.14-.39v-.98l1.65-.27.52-2.8a.549.549 0 0 1 .19-.31.566.566 0 0 1 .36-.11h1.28v3.23h2.74v1.76h-2.74v5.56c0 .32.077.57.23.75.16.18.377.27.65.27.153 0 .28-.017.38-.05.107-.04.197-.08.27-.12.08-.04.15-.077.21-.11.06-.04.12-.06.18-.06.073 0 .133.02.18.06a.693.693 0 0 1 .15.16l.74 1.2c-.36.3-.773.527-1.24.68-.467.153-.95.23-1.45.23Zm10.753-6.47c0-.32-.047-.62-.14-.9a2.082 2.082 0 0 0-.4-.75 1.83 1.83 0 0 0-.69-.5 2.256 2.256 0 0 0-.96-.19c-.713 0-1.277.203-1.69.61-.407.407-.667.983-.78 1.73h4.66Zm-4.71 1.49c.04.527.133.983.28 1.37.147.38.34.697.58.95.24.247.523.433.85.56.333.12.7.18 1.1.18.4 0 .743-.047 1.03-.14a4.6 4.6 0 0 0 .76-.31c.22-.113.41-.217.57-.31a.989.989 0 0 1 .48-.14c.207 0 .36.077.46.23l.71.9c-.273.32-.58.59-.92.81-.34.213-.697.387-1.07.52a5.886 5.886 0 0 1-1.13.27c-.38.053-.75.08-1.11.08a5.558 5.558 0 0 1-1.99-.35 4.544 4.544 0 0 1-1.6-1.05 4.996 4.996 0 0 1-1.07-1.72c-.26-.687-.39-1.48-.39-2.38 0-.7.113-1.357.34-1.97.227-.62.55-1.157.97-1.61.427-.46.943-.823 1.55-1.09.613-.267 1.303-.4 2.07-.4.647 0 1.243.103 1.79.31.547.207 1.017.51 1.41.91.393.393.7.88.92 1.46.227.573.34 1.23.34 1.97 0 .373-.04.627-.12.76-.08.127-.233.19-.46.19h-6.35Zm20.657-1.49c0-.32-.047-.62-.14-.9a2.082 2.082 0 0 0-.4-.75 1.83 1.83 0 0 0-.69-.5 2.256 2.256 0 0 0-.96-.19c-.713 0-1.277.203-1.69.61-.407.407-.667.983-.78 1.73h4.66Zm-4.71 1.49c.04.527.133.983.28 1.37.147.38.34.697.58.95.24.247.523.433.85.56.333.12.7.18 1.1.18.4 0 .743-.047 1.03-.14a4.6 4.6 0 0 0 .76-.31c.22-.113.41-.217.57-.31a.989.989 0 0 1 .48-.14c.207 0 .36.077.46.23l.71.9c-.273.32-.58.59-.92.81-.34.213-.697.387-1.07.52a5.886 5.886 0 0 1-1.13.27c-.38.053-.75.08-1.11.08a5.558 5.558 0 0 1-1.99-.35 4.544 4.544 0 0 1-1.6-1.05 4.996 4.996 0 0 1-1.07-1.72c-.26-.687-.39-1.48-.39-2.38 0-.7.113-1.357.34-1.97.227-.62.55-1.157.97-1.61.427-.46.943-.823 1.55-1.09.613-.267 1.303-.4 2.07-.4.647 0 1.243.103 1.79.31.547.207 1.017.51 1.41.91.393.393.7.88.92 1.46.227.573.34 1.23.34 1.97 0 .373-.04.627-.12.76-.08.127-.233.19-.46.19h-6.35Zm11.294-4.18c.206-.207.423-.397.65-.57.233-.18.476-.33.73-.45a3.81 3.81 0 0 1 .83-.29c.293-.073.613-.11.96-.11.56 0 1.056.097 1.49.29.433.187.793.453 1.08.8.293.34.513.75.66 1.23.153.473.23.997.23 1.57V198h-2.47v-6.53c0-.627-.144-1.11-.43-1.45-.287-.347-.724-.52-1.31-.52-.427 0-.827.097-1.2.29a4.282 4.282 0 0 0-1.06.79V198h-2.47v-10.26h1.51c.32 0 .53.15.63.45l.17.81Zm30.312-5.46V198h-2.37v-9.34c0-.373.02-.777.06-1.21l-4.37 8.21c-.207.393-.523.59-.95.59h-.38c-.427 0-.743-.197-.95-.59l-4.42-8.24c.02.22.037.437.05.65.013.213.02.41.02.59V198h-2.37v-14.46h2.03c.12 0 .223.003.31.01a.779.779 0 0 1 .23.05c.073.027.137.07.19.13a1 1 0 0 1 .17.24l4.33 8.03c.113.213.217.433.31.66.1.227.197.46.29.7.093-.247.19-.483.29-.71.1-.233.207-.457.32-.67l4.27-8.01a1 1 0 0 1 .17-.24.571.571 0 0 1 .19-.13.896.896 0 0 1 .24-.05c.087-.007.19-.01.31-.01h2.03Zm12.141 4.2-5.59 13.08a.898.898 0 0 1-.29.39c-.113.093-.29.14-.53.14h-1.84l1.92-4.12-4.15-9.49h2.17c.194 0 .344.047.45.14.114.093.197.2.25.32l2.18 5.32c.074.18.134.36.18.54.054.18.104.363.15.55.06-.187.12-.37.18-.55.06-.187.127-.37.2-.55l2.06-5.31a.727.727 0 0 1 .68-.46h1.98Zm13.812-4.2V198h-2.7v-6.32h-6.79V198h-2.7v-14.46h2.7v6.22h6.79v-6.22h2.7Zm7.258 4.04c.76 0 1.45.123 2.07.37.626.247 1.16.597 1.6 1.05.446.453.79 1.007 1.03 1.66s.36 1.383.36 2.19c0 .813-.12 1.547-.36 2.2a4.688 4.688 0 0 1-1.03 1.67c-.44.46-.974.813-1.6 1.06-.62.247-1.31.37-2.07.37-.767 0-1.464-.123-2.09-.37a4.516 4.516 0 0 1-1.61-1.06 4.864 4.864 0 0 1-1.03-1.67c-.24-.653-.36-1.387-.36-2.2 0-.807.12-1.537.36-2.19a4.754 4.754 0 0 1 1.03-1.66 4.587 4.587 0 0 1 1.61-1.05c.626-.247 1.323-.37 2.09-.37Zm0 8.67c.853 0 1.483-.287 1.89-.86.413-.573.62-1.413.62-2.52s-.207-1.95-.62-2.53c-.407-.58-1.037-.87-1.89-.87-.867 0-1.51.293-1.93.88-.414.58-.62 1.42-.62 2.52s.206 1.94.62 2.52c.42.573 1.063.86 1.93.86Zm13.404-6.51a.722.722 0 0 1-.21.23.58.58 0 0 1-.28.06.909.909 0 0 1-.39-.1c-.133-.067-.29-.14-.47-.22a3.918 3.918 0 0 0-.62-.23 2.882 2.882 0 0 0-.81-.1c-.487 0-.87.103-1.15.31a.97.97 0 0 0-.41.81.8.8 0 0 0 .21.56c.147.147.337.277.57.39.24.113.51.217.81.31.3.087.603.183.91.29.313.107.62.23.92.37.3.133.567.307.8.52.24.207.43.457.57.75.147.293.22.647.22 1.06 0 .493-.09.95-.27 1.37a2.95 2.95 0 0 1-.78 1.08c-.347.3-.777.537-1.29.71-.507.167-1.093.25-1.76.25-.353 0-.7-.033-1.04-.1a5.652 5.652 0 0 1-1.83-.66c-.26-.153-.49-.32-.69-.5l.57-.94c.073-.113.16-.2.26-.26a.73.73 0 0 1 .38-.09c.153 0 .297.043.43.13.14.087.3.18.48.28.18.1.39.193.63.28.247.087.557.13.93.13.293 0 .543-.033.75-.1.213-.073.387-.167.52-.28a.974.974 0 0 0 .3-.39c.067-.153.1-.31.1-.47a.817.817 0 0 0-.22-.59 1.802 1.802 0 0 0-.57-.4 4.962 4.962 0 0 0-.81-.3c-.3-.093-.61-.193-.93-.3-.313-.107-.623-.23-.93-.37-.3-.147-.57-.33-.81-.55a2.58 2.58 0 0 1-.57-.81c-.14-.32-.21-.707-.21-1.16 0-.42.083-.82.25-1.2.167-.38.41-.71.73-.99.327-.287.73-.513 1.21-.68.487-.173 1.047-.26 1.68-.26.707 0 1.35.117 1.93.35.58.233 1.063.54 1.45.92l-.56.89Zm5.199 5.6c.28.34.583.58.91.72.333.14.693.21 1.08.21.373 0 .71-.07 1.01-.21.3-.14.553-.353.76-.64.213-.287.377-.647.49-1.08.113-.44.17-.957.17-1.55 0-.6-.05-1.107-.15-1.52-.093-.42-.23-.76-.41-1.02-.18-.26-.4-.45-.66-.57a2.007 2.007 0 0 0-.87-.18c-.513 0-.95.11-1.31.33-.36.213-.7.517-1.02.91v4.6Zm-.13-6.2c.42-.473.897-.857 1.43-1.15.533-.293 1.16-.44 1.88-.44.56 0 1.07.117 1.53.35.467.233.867.573 1.2 1.02.34.44.6.987.78 1.64.187.647.28 1.39.28 2.23 0 .767-.103 1.477-.31 2.13a5.161 5.161 0 0 1-.89 1.7c-.38.48-.843.857-1.39 1.13-.54.267-1.147.4-1.82.4-.573 0-1.063-.087-1.47-.26a3.67 3.67 0 0 1-1.09-.74v4.2h-2.47v-13.61h1.51c.32 0 .53.15.63.45l.2.95Zm11.787-1.4V198h-2.48v-10.26h2.48Zm.34-2.99c0 .213-.043.413-.13.6-.086.187-.203.35-.35.49-.14.14-.306.253-.5.34-.193.08-.4.12-.62.12-.213 0-.416-.04-.61-.12-.186-.087-.35-.2-.49-.34a1.699 1.699 0 0 1-.34-.49 1.604 1.604 0 0 1 0-1.22c.087-.193.2-.36.34-.5s.304-.25.49-.33c.194-.087.397-.13.61-.13.22 0 .427.043.62.13.194.08.36.19.5.33a1.56 1.56 0 0 1 .48 1.12Zm5.798 13.41c-.893 0-1.58-.25-2.06-.75-.473-.507-.71-1.203-.71-2.09v-5.73h-1.05a.482.482 0 0 1-.34-.13c-.093-.087-.14-.217-.14-.39v-.98l1.65-.27.52-2.8a.554.554 0 0 1 .19-.31.57.57 0 0 1 .36-.11h1.28v3.23h2.74v1.76h-2.74v5.56c0 .32.077.57.23.75.16.18.377.27.65.27.154 0 .28-.017.38-.05.107-.04.197-.08.27-.12.08-.04.15-.077.21-.11.06-.04.12-.06.18-.06.074 0 .134.02.18.06a.693.693 0 0 1 .15.16l.74 1.2c-.36.3-.773.527-1.24.68-.466.153-.95.23-1.45.23Zm9.642-4.54a12.97 12.97 0 0 0-1.8.19c-.487.087-.877.2-1.17.34-.294.14-.504.303-.63.49-.127.187-.19.39-.19.61 0 .433.126.743.38.93.26.187.596.28 1.01.28.506 0 .943-.09 1.31-.27.373-.187.736-.467 1.09-.84v-1.73Zm-5.66-4.45c1.18-1.08 2.6-1.62 4.26-1.62.6 0 1.136.1 1.61.3.473.193.873.467 1.2.82.326.347.573.763.74 1.25.173.487.26 1.02.26 1.6V198h-1.12c-.234 0-.414-.033-.54-.1-.127-.073-.227-.217-.3-.43l-.22-.74c-.26.233-.514.44-.76.62-.247.173-.504.32-.77.44-.267.12-.554.21-.86.27-.3.067-.634.1-1 .1-.434 0-.834-.057-1.2-.17a2.694 2.694 0 0 1-.95-.53 2.34 2.34 0 0 1-.62-.87c-.147-.347-.22-.75-.22-1.21a2.354 2.354 0 0 1 .55-1.51c.2-.233.456-.453.77-.66a4.946 4.946 0 0 1 1.15-.54 9.8 9.8 0 0 1 1.6-.37c.606-.1 1.3-.16 2.08-.18v-.6c0-.687-.147-1.193-.44-1.52-.294-.333-.717-.5-1.27-.5-.4 0-.734.047-1 .14-.26.093-.49.2-.69.32l-.55.31c-.16.093-.34.14-.54.14a.728.728 0 0 1-.44-.13c-.12-.093-.217-.2-.29-.32l-.44-.79Zm13.096-6.03V198h-2.47v-14.86h2.47Z"/>
  <rect width="177" height="162" x="78" fill="#71A7FF" rx="18"/>
  <g clip-path="url(#a)">
    <path stroke="#000" stroke-linecap="round" stroke-linejoin="round" stroke-width="1.714" d="M165.13 88.143c9.888 0 17.904-7.995 17.904-17.857 0-9.862-8.016-17.857-17.904-17.857s-17.904 7.995-17.904 17.857c0 9.862 8.016 17.857 17.904 17.857Zm-35.091 39.286a35.702 35.702 0 0 1 12.43-20.546 35.87 35.87 0 0 1 22.661-8.061 35.87 35.87 0 0 1 22.661 8.061 35.702 35.702 0 0 1 12.43 20.546"/>
    <path stroke="#000" stroke-linecap="round" stroke-linejoin="round" stroke-width="1.714" d="M204.518 34.572h-78.776c-3.955 0-7.161 3.197-7.161 7.142v78.572c0 3.945 3.206 7.143 7.161 7.143h78.776c3.955 0 7.161-3.198 7.161-7.143V41.714c0-3.944-3.206-7.142-7.161-7.142Z"/>
  </g>
  <defs>
    <clipPath id="a">
      <path fill="#fff" d="M0 0h100.26v100H0z" transform="translate(115 31)"/>
    </clipPath>
  </defs>
</svg>
