<svg xmlns="http://www.w3.org/2000/svg" width="332" height="211" fill="none" viewBox="0 0 332 211">
  <rect width="331" height="41" x=".5" y="169.5" fill="#EBF0FF" stroke="#AECBFA" rx="7.5"/>
  <path fill="#25282B" d="M48.02 195.9c.5 0 .92-.06 1.26-.18.34-.12.61-.28.81-.48.207-.2.353-.433.44-.7.093-.267.14-.55.14-.85 0-.313-.05-.593-.15-.84a1.542 1.542 0 0 0-.47-.64 2.147 2.147 0 0 0-.83-.41 4.551 4.551 0 0 0-1.21-.14H45.3v4.24h2.72Zm-2.72-10.28v4.18h2.14c.92 0 1.613-.167 2.08-.5.473-.333.71-.863.71-1.59 0-.753-.213-1.29-.64-1.61-.427-.32-1.093-.48-2-.48H45.3Zm2.29-2.08c.947 0 1.757.09 2.43.27.673.18 1.223.437 1.65.77.433.333.75.737.95 1.21.2.473.3 1.007.3 1.6 0 .34-.05.667-.15.98a2.84 2.84 0 0 1-.47.87c-.207.267-.473.51-.8.73-.32.22-.703.407-1.15.56 1.987.447 2.98 1.52 2.98 3.22a4.11 4.11 0 0 1-.35 1.7c-.233.52-.573.97-1.02 1.35-.447.373-.997.667-1.65.88-.653.213-1.4.32-2.24.32h-5.46v-14.46h4.98Zm10.378 4.2V198h-2.48v-10.26h2.48Zm.34-2.99c0 .213-.043.413-.13.6-.086.187-.203.35-.35.49-.14.14-.306.253-.5.34-.193.08-.4.12-.62.12a1.58 1.58 0 0 1-.61-.12 1.69 1.69 0 0 1-.83-.83 1.604 1.604 0 0 1 0-1.22c.087-.193.2-.36.34-.5s.304-.25.49-.33a1.47 1.47 0 0 1 .61-.13c.22 0 .427.043.62.13.194.08.36.19.5.33a1.56 1.56 0 0 1 .48 1.12Zm8.988 6.94c0-.32-.046-.62-.14-.9a2.077 2.077 0 0 0-.4-.75 1.83 1.83 0 0 0-.69-.5 2.258 2.258 0 0 0-.96-.19c-.713 0-1.276.203-1.69.61-.406.407-.666.983-.78 1.73h4.66Zm-4.71 1.49c.04.527.134.983.28 1.37.147.38.34.697.58.95.24.247.524.433.85.56.334.12.7.18 1.1.18.4 0 .744-.047 1.03-.14a4.6 4.6 0 0 0 .76-.31c.22-.113.41-.217.57-.31a.987.987 0 0 1 .48-.14c.207 0 .36.077.46.23l.71.9c-.273.32-.58.59-.92.81a5.47 5.47 0 0 1-1.07.52 5.886 5.886 0 0 1-1.13.27c-.38.053-.75.08-1.11.08a5.558 5.558 0 0 1-1.99-.35 4.544 4.544 0 0 1-1.6-1.05 4.992 4.992 0 0 1-1.07-1.72c-.26-.687-.39-1.48-.39-2.38 0-.7.114-1.357.34-1.97.227-.62.55-1.157.97-1.61.427-.46.944-.823 1.55-1.09.614-.267 1.304-.4 2.07-.4.647 0 1.244.103 1.79.31.547.207 1.017.51 1.41.91.394.393.7.88.92 1.46.227.573.34 1.23.34 1.97 0 .373-.04.627-.12.76-.08.127-.233.19-.46.19h-6.35ZM73.88 189c.207-.207.423-.397.65-.57a3.992 3.992 0 0 1 1.56-.74 3.97 3.97 0 0 1 .96-.11c.56 0 1.057.097 1.49.29a2.83 2.83 0 0 1 1.08.8c.293.34.513.75.66 1.23.153.473.23.997.23 1.57V198h-2.47v-6.53c0-.627-.143-1.11-.43-1.45-.287-.347-.723-.52-1.31-.52-.427 0-.827.097-1.2.29a4.3 4.3 0 0 0-1.06.79V198h-2.47v-10.26h1.51c.32 0 .53.15.63.45l.17.81Zm18.195-1.26L88.005 198h-2.24l-4.07-10.26h2.04c.186 0 .34.043.46.13a.61.61 0 0 1 .25.33l1.98 5.48a14.658 14.658 0 0 1 .49 1.86c.066-.307.14-.613.22-.92.08-.307.176-.62.29-.94l2.02-5.48a.679.679 0 0 1 .25-.33.712.712 0 0 1 .43-.13h1.95Zm7.814 3.95c0-.32-.047-.62-.14-.9a2.077 2.077 0 0 0-.4-.75 1.83 1.83 0 0 0-.69-.5 2.258 2.258 0 0 0-.96-.19c-.714 0-1.277.203-1.69.61-.407.407-.667.983-.78 1.73h4.66Zm-4.71 1.49c.04.527.133.983.28 1.37.146.38.34.697.58.95.24.247.523.433.85.56.333.12.7.18 1.1.18.4 0 .743-.047 1.03-.14a4.6 4.6 0 0 0 .76-.31c.22-.113.41-.217.57-.31a.983.983 0 0 1 .48-.14c.206 0 .36.077.46.23l.71.9c-.274.32-.58.59-.92.81-.34.213-.697.387-1.07.52a5.898 5.898 0 0 1-1.13.27c-.38.053-.75.08-1.11.08a5.558 5.558 0 0 1-1.99-.35 4.544 4.544 0 0 1-1.6-1.05 4.992 4.992 0 0 1-1.07-1.72c-.26-.687-.39-1.48-.39-2.38 0-.7.113-1.357.34-1.97.226-.62.55-1.157.97-1.61.426-.46.943-.823 1.55-1.09.613-.267 1.303-.4 2.07-.4a5.02 5.02 0 0 1 1.79.31 3.88 3.88 0 0 1 1.41.91c.393.393.7.88.92 1.46.226.573.34 1.23.34 1.97 0 .373-.04.627-.12.76-.08.127-.234.19-.46.19h-6.35Zm11.293-4.18c.207-.207.424-.397.65-.57a4.026 4.026 0 0 1 1.56-.74c.294-.073.614-.11.96-.11.56 0 1.057.097 1.49.29a2.82 2.82 0 0 1 1.08.8c.294.34.514.75.66 1.23.154.473.23.997.23 1.57V198h-2.47v-6.53c0-.627-.143-1.11-.43-1.45-.286-.347-.723-.52-1.31-.52a2.58 2.58 0 0 0-1.2.29 4.32 4.32 0 0 0-1.06.79V198h-2.47v-10.26h1.51c.32 0 .53.15.63.45l.17.81Zm11.739-1.26V198h-2.48v-10.26h2.48Zm.34-2.99c0 .213-.043.413-.13.6-.086.187-.203.35-.35.49-.14.14-.306.253-.5.34-.193.08-.4.12-.62.12-.213 0-.416-.04-.61-.12-.186-.087-.35-.2-.49-.34a1.699 1.699 0 0 1-.34-.49 1.604 1.604 0 0 1 0-1.22c.087-.193.2-.36.34-.5s.304-.25.49-.33c.194-.087.397-.13.61-.13.22 0 .427.043.62.13.194.08.36.19.5.33a1.56 1.56 0 0 1 .48 1.12Zm8.818 5.61c-.28-.34-.586-.58-.92-.72a2.66 2.66 0 0 0-1.06-.21c-.373 0-.71.07-1.01.21-.3.14-.556.353-.77.64-.213.28-.376.64-.49 1.08-.113.433-.17.947-.17 1.54 0 .6.047 1.11.14 1.53.1.413.24.753.42 1.02.18.26.4.45.66.57.26.113.55.17.87.17.514 0 .95-.107 1.31-.32.36-.213.7-.517 1.02-.91v-4.6Zm2.47-7.22V198h-1.51c-.326 0-.533-.15-.62-.45l-.21-.99c-.413.473-.89.857-1.43 1.15-.533.293-1.156.44-1.87.44a3.4 3.4 0 0 1-1.54-.35 3.5 3.5 0 0 1-1.21-1.01c-.333-.447-.593-.997-.78-1.65-.18-.653-.27-1.4-.27-2.24 0-.76.104-1.467.31-2.12a5.18 5.18 0 0 1 .89-1.7c.387-.48.85-.853 1.39-1.12.54-.273 1.147-.41 1.82-.41.574 0 1.064.09 1.47.27.407.18.77.423 1.09.73v-5.41h2.47Zm7.178 4.44c.76 0 1.45.123 2.07.37.627.247 1.16.597 1.6 1.05.447.453.79 1.007 1.03 1.66s.36 1.383.36 2.19c0 .813-.12 1.547-.36 2.2a4.674 4.674 0 0 1-1.03 1.67c-.44.46-.973.813-1.6 1.06-.62.247-1.31.37-2.07.37-.767 0-1.463-.123-2.09-.37a4.524 4.524 0 0 1-1.61-1.06 4.879 4.879 0 0 1-1.03-1.67c-.24-.653-.36-1.387-.36-2.2 0-.807.12-1.537.36-2.19a4.769 4.769 0 0 1 1.03-1.66 4.596 4.596 0 0 1 1.61-1.05c.627-.247 1.323-.37 2.09-.37Zm0 8.67c.853 0 1.483-.287 1.89-.86.413-.573.62-1.413.62-2.52s-.207-1.95-.62-2.53c-.407-.58-1.037-.87-1.89-.87-.867 0-1.51.293-1.93.88-.413.58-.62 1.42-.62 2.52s.207 1.94.62 2.52c.42.573 1.063.86 1.93.86Zm17.628-2.63a12.97 12.97 0 0 0-1.8.19c-.487.087-.877.2-1.17.34-.294.14-.504.303-.63.49-.127.187-.19.39-.19.61 0 .433.126.743.38.93.26.187.596.28 1.01.28.506 0 .943-.09 1.31-.27.373-.187.736-.467 1.09-.84v-1.73Zm-5.66-4.45c1.18-1.08 2.6-1.62 4.26-1.62.6 0 1.136.1 1.61.3.473.193.873.467 1.2.82.326.347.573.763.74 1.25.173.487.26 1.02.26 1.6V198h-1.12c-.234 0-.414-.033-.54-.1-.127-.073-.227-.217-.3-.43l-.22-.74c-.26.233-.514.44-.76.62-.247.173-.504.32-.77.44-.267.12-.554.21-.86.27-.3.067-.634.1-1 .1-.434 0-.834-.057-1.2-.17a2.694 2.694 0 0 1-.95-.53 2.34 2.34 0 0 1-.62-.87c-.147-.347-.22-.75-.22-1.21a2.354 2.354 0 0 1 .55-1.51c.2-.233.456-.453.77-.66a4.946 4.946 0 0 1 1.15-.54 9.8 9.8 0 0 1 1.6-.37c.606-.1 1.3-.16 2.08-.18v-.6c0-.687-.147-1.193-.44-1.52-.294-.333-.717-.5-1.27-.5-.4 0-.734.047-1 .14-.26.093-.49.2-.69.32l-.55.31c-.16.093-.34.14-.54.14a.728.728 0 0 1-.44-.13c-.12-.093-.217-.2-.29-.32l-.44-.79Zm31.729-5.63V198h-2.37v-9.34c0-.373.02-.777.06-1.21l-4.37 8.21c-.206.393-.523.59-.95.59h-.38c-.426 0-.743-.197-.95-.59l-4.42-8.24c.02.22.037.437.05.65.014.213.02.41.02.59V198h-2.37v-14.46h2.03c.12 0 .224.003.31.01a.772.772 0 0 1 .23.05.46.46 0 0 1 .19.13 1 1 0 0 1 .17.24l4.33 8.03c.114.213.217.433.31.66.1.227.197.46.29.7.094-.247.19-.483.29-.71.1-.233.207-.457.32-.67l4.27-8.01c.054-.1.11-.18.17-.24a.582.582 0 0 1 .19-.13.913.913 0 0 1 .24-.05c.087-.007.19-.01.31-.01h2.03Zm12.142 4.2-5.59 13.08a.905.905 0 0 1-.29.39c-.114.093-.29.14-.53.14h-1.84l1.92-4.12-4.15-9.49h2.17c.193 0 .343.047.45.14.113.093.196.2.25.32l2.18 5.32c.073.18.133.36.18.54.053.18.103.363.15.55.06-.187.12-.37.18-.55.06-.187.126-.37.2-.55l2.06-5.31a.722.722 0 0 1 .68-.46h1.98Zm13.811-4.2V198h-2.7v-6.32h-6.79V198h-2.7v-14.46h2.7v6.22h6.79v-6.22h2.7Zm7.258 4.04c.76 0 1.45.123 2.07.37.627.247 1.16.597 1.6 1.05.447.453.79 1.007 1.03 1.66s.36 1.383.36 2.19c0 .813-.12 1.547-.36 2.2a4.674 4.674 0 0 1-1.03 1.67c-.44.46-.973.813-1.6 1.06-.62.247-1.31.37-2.07.37-.767 0-1.463-.123-2.09-.37a4.524 4.524 0 0 1-1.61-1.06 4.879 4.879 0 0 1-1.03-1.67c-.24-.653-.36-1.387-.36-2.2 0-.807.12-1.537.36-2.19a4.769 4.769 0 0 1 1.03-1.66 4.596 4.596 0 0 1 1.61-1.05c.627-.247 1.323-.37 2.09-.37Zm0 8.67c.853 0 1.483-.287 1.89-.86.413-.573.62-1.413.62-2.52s-.207-1.95-.62-2.53c-.407-.58-1.037-.87-1.89-.87-.867 0-1.51.293-1.93.88-.413.58-.62 1.42-.62 2.52s.207 1.94.62 2.52c.42.573 1.063.86 1.93.86Zm13.404-6.51a.7.7 0 0 1-.21.23.578.578 0 0 1-.28.06.909.909 0 0 1-.39-.1c-.133-.067-.29-.14-.47-.22a3.881 3.881 0 0 0-.62-.23 2.873 2.873 0 0 0-.81-.1c-.486 0-.87.103-1.15.31a.97.97 0 0 0-.41.81.8.8 0 0 0 .21.56c.147.147.337.277.57.39.24.113.51.217.81.31.3.087.604.183.91.29.314.107.62.23.92.37.3.133.567.307.8.52.24.207.43.457.57.75.147.293.22.647.22 1.06 0 .493-.09.95-.27 1.37a2.95 2.95 0 0 1-.78 1.08c-.346.3-.776.537-1.29.71-.506.167-1.093.25-1.76.25-.353 0-.7-.033-1.04-.1a5.697 5.697 0 0 1-1.83-.66c-.26-.153-.49-.32-.69-.5l.57-.94c.074-.113.16-.2.26-.26a.73.73 0 0 1 .38-.09.77.77 0 0 1 .43.13c.14.087.3.18.48.28.18.1.39.193.63.28.247.087.557.13.93.13.294 0 .544-.033.75-.1.214-.073.387-.167.52-.28a.974.974 0 0 0 .3-.39c.067-.153.1-.31.1-.47a.817.817 0 0 0-.22-.59 1.802 1.802 0 0 0-.57-.4 4.962 4.962 0 0 0-.81-.3c-.3-.093-.61-.193-.93-.3-.313-.107-.623-.23-.93-.37-.3-.147-.57-.33-.81-.55a2.58 2.58 0 0 1-.57-.81c-.14-.32-.21-.707-.21-1.16 0-.42.084-.82.25-1.2.167-.38.41-.71.73-.99.327-.287.73-.513 1.21-.68.487-.173 1.047-.26 1.68-.26.707 0 1.35.117 1.93.35.58.233 1.064.54 1.45.92l-.56.89Zm5.199 5.6c.28.34.584.58.91.72.334.14.694.21 1.08.21.374 0 .71-.07 1.01-.21.3-.14.554-.353.76-.64.214-.287.377-.647.49-1.08.114-.44.17-.957.17-1.55 0-.6-.05-1.107-.15-1.52-.093-.42-.23-.76-.41-1.02-.18-.26-.4-.45-.66-.57a2.007 2.007 0 0 0-.87-.18c-.513 0-.95.11-1.31.33-.36.213-.7.517-1.02.91v4.6Zm-.13-6.2c.42-.473.897-.857 1.43-1.15.534-.293 1.16-.44 1.88-.44.56 0 1.07.117 1.53.35.467.233.867.573 1.2 1.02.34.44.6.987.78 1.64.187.647.28 1.39.28 2.23 0 .767-.103 1.477-.31 2.13a5.143 5.143 0 0 1-.89 1.7c-.38.48-.843.857-1.39 1.13-.54.267-1.146.4-1.82.4-.573 0-1.063-.087-1.47-.26a3.684 3.684 0 0 1-1.09-.74v4.2h-2.47v-13.61h1.51c.32 0 .53.15.63.45l.2.95Zm11.787-1.4V198h-2.48v-10.26h2.48Zm.34-2.99c0 .213-.043.413-.13.6-.086.187-.203.35-.35.49-.14.14-.306.253-.5.34-.193.08-.4.12-.62.12-.213 0-.416-.04-.61-.12-.186-.087-.35-.2-.49-.34a1.699 1.699 0 0 1-.34-.49 1.604 1.604 0 0 1 0-1.22c.087-.193.2-.36.34-.5s.304-.25.49-.33c.194-.087.397-.13.61-.13.22 0 .427.043.62.13.194.08.36.19.5.33a1.56 1.56 0 0 1 .48 1.12Zm5.799 13.41c-.894 0-1.58-.25-2.06-.75-.474-.507-.71-1.203-.71-2.09v-5.73h-1.05a.478.478 0 0 1-.34-.13c-.094-.087-.14-.217-.14-.39v-.98l1.65-.27.52-2.8a.543.543 0 0 1 .19-.31.566.566 0 0 1 .36-.11h1.28v3.23h2.74v1.76h-2.74v5.56c0 .32.076.57.23.75.16.18.376.27.65.27.153 0 .28-.017.38-.05.106-.04.196-.08.27-.12.08-.04.15-.077.21-.11.06-.04.12-.06.18-.06.073 0 .133.02.18.06a.739.739 0 0 1 .15.16l.74 1.2c-.36.3-.774.527-1.24.68-.467.153-.95.23-1.45.23Zm9.641-4.54c-.713.033-1.313.097-1.8.19-.487.087-.877.2-1.17.34-.293.14-.503.303-.63.49s-.19.39-.19.61c0 .433.127.743.38.93.26.187.597.28 1.01.28.507 0 .943-.09 1.31-.27a3.976 3.976 0 0 0 1.09-.84v-1.73Zm-5.66-4.45c1.18-1.08 2.6-1.62 4.26-1.62.6 0 1.137.1 1.61.3.473.193.873.467 1.2.82.327.347.573.763.74 1.25.173.487.26 1.02.26 1.6V198h-1.12c-.233 0-.413-.033-.54-.1-.127-.073-.227-.217-.3-.43l-.22-.74c-.26.233-.513.44-.76.62-.247.173-.503.32-.77.44s-.553.21-.86.27c-.3.067-.633.1-1 .1a4.06 4.06 0 0 1-1.2-.17 2.702 2.702 0 0 1-.95-.53 2.351 2.351 0 0 1-.62-.87c-.147-.347-.22-.75-.22-1.21a2.354 2.354 0 0 1 .55-1.51c.2-.233.457-.453.77-.66a4.966 4.966 0 0 1 1.15-.54 9.8 9.8 0 0 1 1.6-.37c.607-.1 1.3-.16 2.08-.18v-.6c0-.687-.147-1.193-.44-1.52-.293-.333-.717-.5-1.27-.5-.4 0-.733.047-1 .14-.26.093-.49.2-.69.32l-.55.31c-.16.093-.34.14-.54.14a.73.73 0 0 1-.44-.13c-.12-.093-.217-.2-.29-.32l-.44-.79Zm13.096-6.03V198h-2.47v-14.86h2.47Z"/>
  <rect width="177" height="162" x="78" fill="#71A7FF" rx="18"/>
  <path stroke="#000" stroke-linecap="round" stroke-linejoin="round" stroke-width="1.714" d="M191.195 103.154v18.461c0 1.959-.88 3.837-2.447 5.222-1.567 1.385-3.692 2.163-5.908 2.163h-58.485c-2.216 0-4.341-.778-5.908-2.163-1.567-1.385-2.447-3.263-2.447-5.222v-81.23c0-1.959.88-3.837 2.447-5.222 1.567-1.385 3.692-2.163 5.908-2.163h58.485c2.216 0 4.341.778 5.908 2.163 1.567 1.385 2.447 3.263 2.447 5.222v18.461M216.26 81h-66.84"/>
  <path stroke="#000" stroke-linecap="round" stroke-linejoin="round" stroke-width="1.714" d="m166.13 66.231-16.71 14.77 16.71 14.768"/>
</svg>
