<svg xmlns="http://www.w3.org/2000/svg" width="72" height="72" fill="none" viewBox="0 0 72 72">
  <path fill="#41D399" d="M6.167 38.2h6.24c.474 0 .913.237 1.174.626 0 0 1.19 1.795 2.376 3.576.658-5.834 2.95-26.228 2.95-26.228a1.41 1.41 0 0 1 2.237-.97 1.4 1.4 0 0 1 .528.802s2.988 12.53 4.402 18.45l1.871-5.297a1.404 1.404 0 0 1 2.644-.016s2.775 7.539 3.33 9.057h5.417c.473 0 .912.237 1.172.626 0 0 1.19 1.795 2.375 3.578.66-5.835 2.952-26.229 2.952-26.229a1.406 1.406 0 0 1 2.765-.167L53 34.456l1.874-5.296a1.403 1.403 0 0 1 2.642-.016s2.778 7.539 3.333 9.058h5.535l.295-.563c2.689-4.626 4.652-13.192 4.652-19.43C71.33 10.25 65.538.636 54.25.636c-16.13 0-18.204 15.11-18.204 15.11S34.046.708 17.926.708c-10.89 0-16.732 9.265-16.732 17.5 0 7.113 3.114 15.892 4.709 19.498l.264.493Z"/>
  <path fill="#41D399" d="M59.868 41.013c-.592 0-1.117-.37-1.319-.92l-2.326-6.32-2.154 6.112c-.209.588-.777.97-1.399.932a1.393 1.393 0 0 1-1.292-1.077l-3.643-15.263-2.484 22.076a1.403 1.403 0 0 1-1.07 1.206 1.405 1.405 0 0 1-1.5-.587s-3.41-5.13-4.098-6.16H32.94a1.406 1.406 0 0 1-1.317-.92l-2.327-6.318a5536.19 5536.19 0 0 0-2.16 6.11 1.395 1.395 0 0 1-1.398.933 1.404 1.404 0 0 1-1.297-1.077l-3.636-15.253-2.483 22.066a1.405 1.405 0 0 1-1.069 1.206 1.407 1.407 0 0 1-1.502-.587s-3.409-5.13-4.097-6.16H7.695c10.084 17.918 28.351 29.72 28.351 29.72s18.598-11.804 28.843-29.72h-5.02l-.001.001Z"/>
</svg>
