<svg xmlns="http://www.w3.org/2000/svg" width="72" height="72" fill="none" viewBox="0 0 72 72">
  <path fill="#41D399" d="M36.134 38.451c5.316 0 7.78 4.036 8.3 9.764.123 1.372-.005 3.37-.181 5.685-.597 7.69-1.285 17.14 3.836 17.14 4.33 0 6.556-8.309 7.84-17.78 1.239-9.375-.074-14.04.57-18.203 1.231-7.887 8.118-14.959 5.99-25.016-1.178-5.58-4.249-8.204-7.293-9.306-7.01-2.552-11.537 2.364-19.064 2.364-7.528 0-12.054-4.916-19.067-2.364-3.04 1.102-6.112 3.727-7.292 9.306-2.125 10.056 4.758 17.129 5.992 25.016.644 4.163-.668 8.828.572 18.204 1.284 9.471 3.51 17.78 7.84 17.78 5.117 0 4.434-9.45 3.835-17.141-.175-2.314-.304-4.313-.182-5.685.518-5.728 3.018-9.764 8.302-9.764h.002Z"/>
</svg>
