<svg xmlns="http://www.w3.org/2000/svg" width="72" height="72" fill="none" viewBox="0 0 72 72">
  <path fill="#41D399" d="M49.5 18c0 9.942-8.058 18-18.127 18-9.815 0-18-8.058-18-18 0-9.94 8.185-18 18-18C41.443 0 49.5 8.06 49.5 18Zm-9.127 32.906c-3.754.999-6.75 4.528-6.75 8.719V63c0 .59.366 1.167.788 1.59l2.25 2.25a2.233 2.233 0 0 0 3.178 0 2.233 2.233 0 0 0 0-3.18l-1.716-1.588v-2.447c0-2.49 2.138-4.5 4.5-4.5 2.616 0 4.627 2.01 4.627 4.5v2.447l-1.59 1.589a2.233 2.233 0 0 0 0 3.178 2.233 2.233 0 0 0 3.18 0l2.25-2.25c.42-.422.66-.998.66-1.589v-3.375A9.01 9.01 0 0 0 45 50.906v-7.481c10.336 2.517 18 11.714 18 22.95V67.5c0 2.49-2.01 4.5-4.5 4.5h-54C2.015 72 0 69.99 0 67.5v-1.125c0-11.11 7.668-20.433 18-22.95v8.648a7.886 7.886 0 0 0-5.625 7.552A7.88 7.88 0 0 0 20.25 67.5a7.88 7.88 0 0 0 7.875-7.875c0-3.572-2.377-6.581-5.625-7.552v-9.295c.38-.014.745-.028 1.125-.028h15.75c.38 0 .745.014 1.125.028l-.127 8.128Zm-16.875 8.719c0 1.87-1.378 3.375-3.375 3.375-1.743 0-3.375-1.505-3.375-3.375s1.632-3.375 3.375-3.375c1.997 0 3.375 1.505 3.375 3.375Z"/>
</svg>
