<svg xmlns="http://www.w3.org/2000/svg" width="956" height="956" fill="none" viewBox="0 0 956 956">
  <g opacity=".1">
    <path stroke="#BDBDBD" stroke-linejoin="round" stroke-miterlimit="10" stroke-width="6" d="M452.233 734.178c-125.401 36.074-194.262-140.636-220.552-203.673C179.25 404.582 42.497 316.75 52.58 224.062c10.083-92.687 123.981-83.425 123.981-83.425"/>
    <path stroke="#BDBDBD" stroke-linejoin="round" stroke-miterlimit="10" stroke-width="6" d="M444.391 734.178c126.147-33.46 85.069-215.921 75.21-283.514-19.643-135.035 52.58-280.601-3.66-354.915-56.239-74.314-149.225-7.916-149.225-7.916"/>
    <path fill="#878787" d="M760.617 354.616c62.905 0 113.899-50.994 113.899-113.898 0-62.905-50.994-113.899-113.899-113.899-62.904 0-113.898 50.994-113.898 113.899 0 62.904 50.994 113.898 113.898 113.898Z"/>
    <path fill="#BDBDBD" d="M764.651 332.658c55.314 0 100.156-44.841 100.156-100.156 0-55.314-44.842-100.156-100.156-100.156-55.315 0-100.156 44.842-100.156 100.156 0 55.315 44.841 100.156 100.156 100.156Z"/>
    <path stroke="#41D399" stroke-miterlimit="10" stroke-width="8" d="M518.257 440.133c-6.648 50.34 75.733 234.22-52.058 284.56-143.101 56.464-196.502-153.483-234.444-194.188"/>
    <path stroke="#41D399" stroke-miterlimit="10" stroke-width="5" d="M243.705 549.252s80.439 84.845 174.769 45.933c89.401-36.896 103.293-134.811 103.293-134.811"/>
    <path fill="#212121" d="M754.045 160.055c-39.136 9.112-63.41 48.174-54.372 87.31a72.721 72.721 0 0 0 6.199 16.879l5.078 10.009c-14.34 18.746-25.991 25.916-29.949 47.65a113.775 113.775 0 0 0 35.028 23.377c0-.074.075-.149.075-.224 0 .075.074.15.074.299 21.436 9.112 45.859 11.875 70.356 6.199 2.764-.672 5.378-1.494 7.992-2.315l-2.316-20.913s2.988-26.514 3.66-27.933c1.718-3.361 8.664-5.153 12.249-7.245 8.664-5.228 16.207-12.323 22.033-20.613a73.223 73.223 0 0 0 11.203-58.107c-9.112-39.136-48.248-63.485-87.31-54.373Z" opacity=".22"/>
    <path stroke="#41D399" stroke-miterlimit="10" stroke-width="8" d="M451.262 717.224c71.625 164.088 181.416 187.316 262.526 173.2 71.252-12.472 165.583-76.33 165.359-192.096-.299-139.516-93.36-130.703-143.774-220.104-62.812-111.434 22.78-213.756 22.78-213.756"/>
    <path fill="#212121" d="M707.589 289.563s14.191-7.244 27.784.523c21.51 12.249 23.601 29.726 23.601 29.726s12.996-25.842 19.942-32.863c6.871-7.095-41.601-42.273-52.58-28.754-10.979 13.518-18.747 31.368-18.747 31.368Z" opacity=".22"/>
    <path fill="#616161" d="M207.855 104.861c-11.203.075-21.062 5.452-27.559 13.593l-9.262-7.319c-8.439-6.647-20.837-.597-20.763 10.158l.299 38.762c.075 10.755 12.548 16.656 20.838 9.859l9.037-7.319c6.573 8.141 16.581 13.443 27.858 13.369 19.643-.15 35.477-16.207 35.328-35.85-.15-19.643-16.133-35.402-35.776-35.253Zm188.96-13.593-19.792-33.31c-5.527-9.262-19.27-7.992-23.004 2.016l-4.108 11.054c-9.784-3.66-20.987-3.137-30.622 2.614a35.555 35.555 0 0 0-12.398 48.771 35.554 35.554 0 0 0 48.771 12.398c9.709-5.751 15.535-15.46 16.954-25.842l11.502 1.569c10.605 1.419 18.224-10.009 12.697-19.27Z"/>
    <path fill="#424242" d="M778.169 286.949c37.619 0 68.115-30.496 68.115-68.115s-30.496-68.115-68.115-68.115-68.115 30.496-68.115 68.115 30.496 68.115 68.115 68.115Z"/>
    <path fill="#D1D1D1" d="M781.605 266.41c29.204 0 52.878-23.674 52.878-52.878 0-29.205-23.674-52.879-52.878-52.879s-52.879 23.674-52.879 52.879c0 29.204 23.675 52.878 52.879 52.878Z"/>
    <path fill="#757575" d="M316.451 112.853c-6.199-8.888-5.004-25.469 5.676-33.012 10.681-7.543 26.813-4.257 33.012 5.676 6.946 11.054-11.203 1.12-21.883 8.664-10.681 7.543-9.336 29.427-16.805 18.672Zm-129.658 15.983c2.689-10.531 15.909-20.464 28.606-17.328 12.697 3.137 20.763 17.403 17.327 28.606-3.809 12.473-8.215-7.768-20.912-10.83-12.622-3.137-28.232 12.249-25.021-.448Z"/>
  </g>
</svg>
